<svg width="90" height="76" viewBox="0 0 90 76" fill="none" xmlns="http://www.w3.org/2000/svg">
<path d="M45.9532 48.5508C42.6557 49.3831 40.0855 45.281 42.735 42.8731C48.8434 37.3217 66.8848 39.1083 67.2804 49.0579C67.7117 59.9076 44.4646 66.0287 36.4332 63.7526C34.9376 63.3288 39.2221 62.5916 39.5641 62.5092C45.4816 61.0833 57.2176 55.4443 59.5605 49.1865C60.2289 47.4013 48.4162 47.9292 45.9532 48.5508Z" fill="black"/>
<path d="M0.960258 75.2158C-0.620207 75.7602 3.27108 72.64 3.58665 72.4195C8.98428 68.6484 14.0026 64.3344 18.8207 59.8553C29.4977 49.9293 48.7598 34.0588 51.5665 18.8308C54.8135 1.21412 28.721 5.94412 22.8511 16.0289C22.6612 16.3551 23.4999 12.2376 26.3651 8.57405C30.0424 3.87214 36.1209 1.11972 42.081 0.479507C53.6117 -0.759074 68.9759 5.79025 66.5636 19.9195C61.4917 49.6263 24.0135 67.2752 0.960258 75.2158Z" fill="black"/>
<path d="M87.0287 14.5412C87.0096 14.4813 88.2577 16.2462 88.6521 17.2098C90.5894 21.9433 89.6316 25.9068 87.0287 30.3691C82.4295 38.2538 70.9313 36.5971 65.6334 31.1866C57.9279 23.3174 60.1138 18.7309 66.1452 9.18102C71.1394 1.27339 80.0235 4.31813 80.9771 10.0802C82.5845 19.7937 71.4111 20.6876 70.0989 18.9612C72.1798 34.9041 91.719 29.1857 87.0287 14.5412Z" fill="black"/>
<rect x="64.2489" y="3.57025" width="16.9855" height="16.9855" rx="8.49275" fill="black"/>
</svg>
