<svg width="191" height="244" viewBox="0 0 191 244" fill="none" xmlns="http://www.w3.org/2000/svg">
<path d="M45.5576 51.8649V125.185C45.5576 129.051 48.6916 132.185 52.5576 132.185H74.9514M45.5576 51.8649H73.4134M45.5576 51.8649L71.7952 20.0232M129.638 51.8649V125.185C129.638 129.051 126.504 132.185 122.638 132.185H104.345M129.638 51.8649H101.269M129.638 51.8649L104.255 20.0232M101.269 51.8649L104.345 132.185M101.269 51.8649H73.4134M104.345 132.185H74.9514M74.9514 132.185L73.4134 51.8649M71.7952 20.0232L82.8018 6.66552C85.6313 3.23171 90.9044 3.27445 93.6778 6.75368L104.255 20.0232M71.7952 20.0232C77.4211 22.9401 91.7895 27.0238 104.255 20.0232" stroke="white" stroke-width="6"/>
<path d="M74.9702 133.234L102.823 183.71M102.823 183.71L127.987 166.663M102.823 183.71C100.658 185.13 97.2624 188.377 100.996 190.001C105.664 192.03 120.884 213.744 122.102 219.426C123.319 225.108 126.363 240.531 138.945 237.082C151.527 233.632 138.134 220.441 146.048 223.891C153.963 227.341 169.994 221.658 172.227 221.456C174.459 221.253 192.723 211.918 186.635 204.206C180.547 196.494 160.862 203.394 157.21 202.785C153.557 202.177 138.945 175.186 136.713 168.895C134.927 163.862 130.152 165.31 127.987 166.663M127.987 166.663L108.655 132.655" stroke="white" stroke-width="6"/>
<path d="M75.7807 137.98L45.5904 166.289M45.5904 166.289L61.7502 186.691M45.5904 166.289C44.0274 164.225 40.5592 161.055 39.1907 164.89C37.4801 169.684 28.3688 176.961 22.7814 178.558C17.1941 180.156 -0.568056 179.353 3.7208 191.674C8.00966 203.996 20.2691 189.745 17.3597 197.873C14.4503 206.002 25.3915 223.858 25.7442 226.071C26.0969 228.285 36.64 245.879 43.9243 239.286C51.2086 232.693 41.3959 220.196 41.7575 216.511C42.1191 212.825 58.3346 198.83 64.4611 196.179C69.3623 194.059 63.2457 188.76 61.7502 186.691M61.7502 186.691L89.4399 163.331" stroke="white" stroke-width="6"/>
</svg>
