<svg width="25" height="21" viewBox="0 0 25 21" fill="none" xmlns="http://www.w3.org/2000/svg">
<path d="M12.3748 13.2449C13.2466 13.4649 13.926 12.3804 13.2256 11.7438C11.6106 10.2761 6.84086 10.7485 6.7363 13.3789C6.62227 16.2474 12.7683 17.8657 14.8916 17.2639C15.287 17.1518 14.1543 16.9569 14.0639 16.9352C12.4994 16.5582 9.39668 15.0674 8.77726 13.4129C8.60056 12.941 11.7236 13.0805 12.3748 13.2449Z" fill="white" fill-opacity="0.72"/>
<path d="M24.2699 20.2945C24.6878 20.4385 23.659 19.6135 23.5756 19.5552C22.1486 18.5582 20.8218 17.4177 19.548 16.2335C16.7252 13.6093 11.6327 9.41347 10.8907 5.38752C10.0323 0.730036 16.9306 1.98055 18.4825 4.64676C18.5327 4.733 18.3109 3.6444 17.5534 2.67585C16.5812 1.43276 14.9742 0.70508 13.3985 0.535821C10.35 0.208366 6.28802 1.93987 6.92578 5.67535C8.26669 13.5292 18.1751 18.1952 24.2699 20.2945Z" fill="white"/>
<path d="M1.51524 4.25344C1.52031 4.23762 1.19033 4.70421 1.08606 4.95896C0.573877 6.21041 0.827094 7.25829 1.51524 8.43801C2.73118 10.5225 5.77107 10.0846 7.17171 8.65415C9.2089 6.57368 8.63099 5.3611 7.03641 2.83633C5.71604 0.745715 3.36726 1.55068 3.11517 3.07404C2.6902 5.64209 5.64422 5.87843 5.99113 5.422C5.44097 9.63696 0.275232 8.12513 1.51524 4.25344Z" fill="white"/>
<rect width="4.49061" height="4.49061" rx="2.24531" transform="matrix(-1 0 0 1 7.53776 1.35294)" fill="white"/>
</svg>
